# xmcd
#
# Track frame offsets:
#	152
#	22735
#	51997
#	96252
#	120315
#	129882
#	154870
#	182027
#	211267
#
# Disc length: 3280 seconds
#
# Revision: 1
# Processed by: cddbd v1.4PL0 Copyright (c) Steve Scherf et al.
# Submitted via: EasyCDDAExtractor 5.0.6
#
DISCID=6b0cce09
DTITLE=The Tim Sherman Band - Them Trains, Them Bones, Them Wertern Blues
DYEAR=1900
DGENRE=Blues
TTITLE0=AUSTIN TO BOSTON!
TTITLE1=SOUL DIVIDED
TTITLE2=SRV
TTITLE3=BA-LUE BOLIVAR BA-LUES-ARE
TTITLE4=VOODOO GRUNGE
TTITLE5=MANIC DEPRESSION
TTITLE6=THE PAYBACK
TTITLE7=1-976-LOVE
TTITLE8=STOOP DOWN SLIM
EXTD=
EXTT0=
EXTT1=
EXTT2=
EXTT3=
EXTT4=
EXTT5=
EXTT6=
EXTT7=
EXTT8=
PLAYORDER=
